<svg xmlns="http://www.w3.org/2000/svg" xmlns:xlink="http://www.w3.org/1999/xlink" viewBox="0 0 167.85 166.19"><defs><style>.cls-1{fill:url(#Degradado_sin_nombre_18);}</style><linearGradient id="Degradado_sin_nombre_18" y1="83.09" x2="167.85" y2="83.09" gradientUnits="userSpaceOnUse"><stop offset="0" stop-color="#6e2c86"/><stop offset="1" stop-color="#cf195e"/></linearGradient></defs><g id="Capa_2" data-name="Capa 2"><g id="Capa_1-2" data-name="Capa 1"><path d="M83.93,69.6a13.5,13.5,0,1,1-13.5,13.49A13.49,13.49,0,0,1,83.93,69.6m0-16a29.5,29.5,0,1,0,29.49,29.49A29.53,29.53,0,0,0,83.93,53.6Z"/><path class="cls-1" d="M83.93,55.75c18.66,0,34.82,7.49,45.09,13.77A94.13,94.13,0,0,1,146.5,83.09,94.11,94.11,0,0,1,129,96.67c-10.27,6.28-26.43,13.77-45.09,13.77-27.42,0-51.1-17.1-61.74-27.35C32.83,72.85,56.51,55.75,83.93,55.75m0-18C37.58,37.75,0,76.75,0,83.09s37.58,45.35,83.93,45.35,83.92-37,83.92-45.35S130.28,37.75,83.93,37.75Z"/><path d="M83.93,16a67.1,67.1,0,1,1-67.1,67.09A67.09,67.09,0,0,1,83.93,16m0-16A83.1,83.1,0,1,0,167,83.09,83.19,83.19,0,0,0,83.93,0Z"/></g></g></svg>