<svg xmlns="http://www.w3.org/2000/svg" xmlns:xlink="http://www.w3.org/1999/xlink" viewBox="0 0 166.2 166.2"><defs><style>.cls-1{fill:url(#Degradado_sin_nombre);}</style><linearGradient id="Degradado_sin_nombre" y1="84.91" x2="166.2" y2="84.91" gradientTransform="matrix(1, 0, 0, -1, 0, 168)" gradientUnits="userSpaceOnUse"><stop offset="0" stop-color="#6e2c86"/><stop offset="1" stop-color="#cf195e"/></linearGradient></defs><g id="Capa_2" data-name="Capa 2"><g id="Capa_1-2" data-name="Capa 1"><g id="Capa_2-2" data-name="Capa 2"><g id="Capa_1-2-2" data-name="Capa 1-2"><path d="M83.13,69.6a13.5,13.5,0,1,1-13.5,13.5h0A13.49,13.49,0,0,1,83.12,69.6h0m0-16a29.5,29.5,0,1,0,29.49,29.51v0A29.52,29.52,0,0,0,83.13,53.6Z"/><path class="cls-1" d="M83.13,55.75c18.66,0,34.82,7.49,45.09,13.77A94.23,94.23,0,0,1,145.7,83.09a94,94,0,0,1-17.5,13.58c-10.27,6.28-26.43,13.77-45.09,13.77-27.42,0-51.1-17.1-61.74-27.35C32,72.85,55.71,55.75,83.13,55.75m0-18C37.21,37.75,0,76.75,0,83.09s37.21,45.35,83.1,45.35,83.1-37,83.1-45.35S129,37.75,83.1,37.75Z"/><path d="M83.13,16A67.1,67.1,0,1,1,16,83.1h0A67.09,67.09,0,0,1,83.12,16h0m0-16A83.1,83.1,0,1,0,166.2,83.13v0A83.19,83.19,0,0,0,83.13,0Z"/></g></g></g></g></svg>